# xmcd
#
# Track frame offsets:
#	150
#	18470
#	41809
#	55849
#	71264
#	85599
#	99658
#	115108
#	131363
#	149109
#	163195
#	179371
#	197248
#	211034
#	226381
#	244830
#	258711
#	272202
#
# Disc length: 3798 seconds
#
# Revision: 1
# Processed by: cddbd v1.5.2PL0 Copyright (c) Steve Scherf et al.
# Submitted via: audiograbber 1.82.02
#
DISCID=090ed412
DTITLE=Various Artist - Country Radio - January 2016
DYEAR=2016
DGENRE=Country
TTITLE0=Justin Timberlake - Drink You Away
TTITLE1=Eric Church - Mr. Misunderstood
TTITLE2=Florida Georgia Line - Confession
TTITLE3=Hank Williams Jr. (Ft. Eric Church) - Are Your Ready For The Country
TTITLE4=Chip Esten - Like New
TTITLE5=Luke Bryan (Ft. Karen Fairchild) - Home Alone Tonight
TTITLE6=Jason Isbell - Something More Than Free
TTITLE7=Old Dominion - Break Up With Him (Live)
TTITLE8=Frankie Ballard - It All Started With A Beer (PO Clean Edit)
TTITLE9=Chris Lane - Fix
TTITLE10=Don Henley (Ft. Trisha Yearwood) - Words Can Break Your Heart
TTITLE11=Chris Stapleton - Nobody To Blame
TTITLE12=Justin Moore - You Look Like I Need A Drink
TTITLE13=Keith Urban - Break On Me
TTITLE14=Toby Keith - Beautiful Stranger
TTITLE15=Tyler Dial - Damn Good Time
TTITLE16=Kyle Park - Come On
TTITLE17=Brett Eldredge - Drunk On Your Love
EXTD=
EXTT0=
EXTT1=
EXTT2=
EXTT3=
EXTT4=
EXTT5=
EXTT6=
EXTT7=
EXTT8=
EXTT9=
EXTT10=
EXTT11=
EXTT12=
EXTT13=
EXTT14=
EXTT15=
EXTT16=
EXTT17=
PLAYORDER=
